<svg width="15" height="15" viewBox="0 0 15 15" fill="none" xmlns="http://www.w3.org/2000/svg">
<path id="Vector" d="M10.3568 11.4917C9.06672 12.4932 7.44355 12.9653 5.81768 12.812C4.1918 12.6588 2.68544 11.8916 1.60521 10.6668C0.52498 9.44193 -0.0479147 7.85144 0.00314136 6.21905C0.0541974 4.58666 0.725366 3.03508 1.88003 1.88015C3.03489 0.725412 4.58637 0.0542009 6.21865 0.00314156C7.85094 -0.0479177 9.44133 0.525013 10.6661 1.60531C11.8909 2.68561 12.6579 4.19207 12.8112 5.81805C12.9645 7.44403 12.4924 9.0673 11.491 10.3574L14.7439 13.6105C14.8495 13.7086 14.9268 13.8334 14.9674 13.9717C15.0081 14.11 15.0107 14.2567 14.975 14.3964C14.9393 14.5361 14.8666 14.6635 14.7645 14.7654C14.6625 14.8672 14.5348 14.9396 14.3951 14.9749C14.2556 15.0107 14.109 15.0082 13.9708 14.9677C13.8326 14.9272 13.7078 14.8502 13.6097 14.7448L10.3568 11.4917ZM11.2342 6.41949C11.2437 5.78129 11.1262 5.14757 10.8886 4.55519C10.651 3.96281 10.2979 3.4236 9.85002 2.96892C9.4021 2.51425 8.86824 2.15318 8.27951 1.90673C7.69078 1.66028 7.05892 1.53336 6.42069 1.53336C5.78246 1.53336 5.1506 1.66028 4.56187 1.90673C3.97313 2.15318 3.43928 2.51425 2.99136 2.96892C2.54344 3.4236 2.19039 3.96281 1.95276 4.55519C1.71513 5.14757 1.59766 5.78129 1.60717 6.41949C1.62602 7.68377 2.14145 8.88988 3.04211 9.77727C3.94277 10.6647 5.15635 11.1621 6.42069 11.1621C7.68502 11.1621 8.89861 10.6647 9.79927 9.77727C10.6999 8.88988 11.2154 7.68377 11.2342 6.41949Z" fill="#888888"/>
</svg>
